<!--?xml version="1.0" encoding="utf-8"?-->
<!-- Svg Vector Icons : http://www.onlinewebfonts.com/icon -->

<svg version="1.1" xmlns="http://www.w3.org/2000/svg" xmlns:xlink="http://www.w3.org/1999/xlink" x="0px" y="0px" viewBox="0 0 256 256" enable-background="new 0 0 256 256" xml:space="preserve">
<metadata> Svg Vector Icons : http://www.onlinewebfonts.com/icon </metadata>
<g><g><g><path fill="#ca0505" data-title="Layer 0" xs="0" d="M117.7,14.8c-12.3,1.6-21.6,5.9-28.6,13.3c-10.2,10.7-14.2,27-12.2,50l0.5,6.6l-1.6,2c-4.4,5.5-4.8,15.8-1.2,23.7c1.4,2.9,5.2,7,6.5,7c1.4,0,2,1.1,3,5.1c1.1,4.4,3.3,10.6,5.5,14.8c2.1,4.2,8.4,13.2,11.6,16.8l3.1,3.3l-0.4,4.1c-0.7,8.5-2.7,12.3-7,13c-3.5,0.5-15.1,4.4-22,7.4c-30.3,13-54.6,31.5-61.9,47.2c-1.7,3.7-3.2,8.8-3.2,11.1v1.5h118h118l-0.4-2.9c-0.7-6.3-4.5-13.9-10.5-20.8c-10.5-12.3-31.5-26.2-54.4-36c-6.9-3-18.5-6.8-22-7.4c-4.3-0.6-6.4-4.6-7.1-13l-0.3-4l3.2-3.8c4.3-5.1,8.4-11.4,11.4-17.4c2.6-5,6.1-14.8,6.1-16.8c0-0.8,0.6-1.4,2.3-2.1c4.6-2.1,7.8-7.3,8.9-14.7c1-6.7-0.4-13-3.6-16.4l-1.3-1.4l0.6-7.5c1.8-22.5-2.2-38.6-12.3-49.2c-7.2-7.6-16.4-11.8-29.4-13.4C132.2,14.1,122.9,14.2,117.7,14.8z"/></g></g></g>
</svg>