<!--?xml version="1.0" encoding="utf-8"?-->
<!-- Svg Vector Icons : http://www.onlinewebfonts.com/icon -->

<svg version="1.1" xmlns="http://www.w3.org/2000/svg" xmlns:xlink="http://www.w3.org/1999/xlink" x="0px" y="0px" viewBox="0 0 256 256" enable-background="new 0 0 256 256" xml:space="preserve">
<metadata> Svg Vector Icons : http://www.onlinewebfonts.com/icon </metadata>
<g><g><path fill="#d12032" data-title="Layer 0" xs="0" d="M222.4,57.2c6.6,0,12.2,2.4,16.8,7.1c4.6,4.7,6.8,10.2,6.8,16.5v129.8c0,6.6-2.3,12.2-6.8,16.8c-4.6,4.6-10.2,6.8-16.8,6.8h-11.8v-177H222.4L222.4,57.2 M10,80.8c0-6.3,2.4-11.8,7.1-16.5c4.7-4.7,10.2-7.1,16.5-7.1h11.8v177H33.6c-6.3,0-11.8-2.3-16.5-6.8c-4.7-4.6-7.1-10.2-7.1-16.8V80.8L10,80.8 M168.1,32.7v24.5h26v177H61.9v-177h26V32.7c15.4-7.2,28.8-10.9,40.1-10.9S152.7,25.4,168.1,32.7L168.1,32.7 M154,57.2V41.6c-8.2-3.8-16.8-5.7-26-5.7c-8.5,0-17.1,1.9-26,5.7v15.6H154L154,57.2"/></g></g>
</svg>