<!--?xml version="1.0" encoding="utf-8"?-->
<!-- Svg Vector Icons : http://www.onlinewebfonts.com/icon -->

<svg version="1.1" xmlns="http://www.w3.org/2000/svg" xmlns:xlink="http://www.w3.org/1999/xlink" x="0px" y="0px" viewBox="0 0 256 256" enable-background="new 0 0 256 256" xml:space="preserve">
<metadata> Svg Vector Icons : http://www.onlinewebfonts.com/icon </metadata>
<g><g><g><path fill="#d12032" data-title="Layer 0" xs="0" d="M120.1,127.9c0-8.7-3.1-16.1-9.2-22.2c-6.1-6.1-13.6-9.2-22.2-9.2c-8.7,0-16.1,3.1-22.2,9.2c-6.1,6.1-9.2,13.6-9.2,22.2c0,8.7,3.1,16.1,9.2,22.2s13.6,9.2,22.2,9.2c8.7,0,16.1-3.1,22.2-9.2C117.1,144,120.1,136.6,120.1,127.9z M214.5,190.9c0-4.3-1.6-7.9-4.7-11.1s-6.8-4.7-11.1-4.7c-4.3,0-7.9,1.6-11.1,4.7c-3.1,3.1-4.7,6.8-4.7,11.1c0,4.3,1.5,8,4.6,11.1c3.1,3.1,6.8,4.6,11.1,4.6c4.3,0,8-1.5,11.1-4.6C213,198.9,214.5,195.2,214.5,190.9z M214.5,65c0-4.3-1.6-7.9-4.7-11.1c-3.1-3.1-6.8-4.7-11.1-4.7c-4.3,0-7.9,1.6-11.1,4.7c-3.1,3.1-4.7,6.8-4.7,11.1c0,4.3,1.5,8,4.6,11.1c3.1,3.1,6.8,4.6,11.1,4.6c4.3,0,8-1.5,11.1-4.6C213,73.1,214.5,69.4,214.5,65z M167.3,116.8v22.7c0,0.8-0.3,1.6-0.9,2.4c-0.6,0.8-1.2,1.2-2,1.3l-19,3c-0.9,2.9-2.2,6-3.9,9.3c2.8,3.9,6.5,8.6,11.1,14.1c0.6,0.8,0.9,1.6,0.9,2.5c0,1-0.3,1.8-0.9,2.3c-1.9,2.5-5.3,6.1-10.1,11c-4.9,4.9-8.1,7.3-9.7,7.3c-0.9,0-1.8-0.3-2.6-0.9l-14.1-11.1c-3,1.6-6.2,2.8-9.5,3.8c-0.9,8.9-1.9,15.2-2.8,19c-0.6,2-1.8,3-3.7,3H77.3c-0.9,0-1.7-0.3-2.5-0.9c-0.7-0.6-1.2-1.3-1.2-2.1l-2.8-18.8c-2.8-0.8-5.9-2.1-9.2-3.8L47,191.9c-0.6,0.6-1.4,0.9-2.5,0.9c-0.9,0-1.8-0.3-2.6-1c-11.8-10.9-17.7-17.5-17.7-19.7c0-0.7,0.3-1.5,0.9-2.3c0.8-1.2,2.5-3.3,5-6.5s4.5-5.7,5.8-7.5c-1.9-3.6-3.3-7-4.3-10.1l-18.7-3c-0.8-0.1-1.5-0.5-2.1-1.2c-0.6-0.7-0.9-1.5-0.9-2.4v-22.7c0-0.8,0.3-1.6,0.9-2.4c0.6-0.8,1.2-1.2,2-1.3l19-3c0.9-2.9,2.2-6,3.9-9.3c-2.8-3.9-6.5-8.6-11.1-14.1c-0.6-0.9-0.9-1.7-0.9-2.5c0-1,0.3-1.8,0.9-2.5c1.8-2.5,5.2-6.1,10.1-10.9c4.9-4.8,8.2-7.2,9.7-7.2c0.9,0,1.8,0.3,2.6,0.9l14.1,11.1c2.8-1.5,5.9-2.8,9.5-3.9c0.9-8.8,1.9-15.2,2.8-18.9c0.6-2,1.8-3,3.7-3h22.9c0.9,0,1.7,0.3,2.5,0.9c0.7,0.6,1.2,1.3,1.2,2.1l2.8,18.8c2.8,0.8,5.9,2.1,9.2,3.8L130.3,64c0.6-0.6,1.5-0.9,2.5-0.9c0.9,0,1.8,0.3,2.6,1C147.1,75,153,81.6,153,83.8c0,0.7-0.3,1.5-0.9,2.3c-1,1.3-2.7,3.5-5.2,6.6c-2.5,3.1-4.3,5.6-5.5,7.4c1.9,3.9,3.3,7.3,4.2,10.1l18.7,2.8c0.8,0.2,1.5,0.6,2.1,1.3C167,115.1,167.3,115.9,167.3,116.8L167.3,116.8z M246,182.3v17.2c0,1.3-6.1,2.6-18.3,3.8c-1,2.2-2.2,4.3-3.7,6.4c4.2,9.3,6.3,14.9,6.3,17c0,0.3-0.2,0.6-0.5,0.9c-10,5.8-15.1,8.7-15.2,8.7c-0.7,0-2.5-1.9-5.7-5.8c-3.1-3.9-5.3-6.6-6.4-8.4c-1.6,0.2-2.9,0.2-3.7,0.2c-0.8,0-2-0.1-3.7-0.2c-1.2,1.7-3.3,4.5-6.4,8.4c-3.1,3.9-5,5.8-5.7,5.8c-0.2,0-5.3-2.9-15.2-8.7c-0.3-0.2-0.5-0.5-0.5-0.9c0-2,2.1-7.7,6.3-17c-1.5-2-2.7-4.2-3.7-6.4c-12.2-1.2-18.3-2.5-18.3-3.8v-17.2c0-1.3,6.1-2.6,18.3-3.8c1.1-2.4,2.3-4.5,3.7-6.4c-4.2-9.3-6.3-14.9-6.3-17c0-0.3,0.2-0.6,0.5-0.9c0.3-0.2,1.8-1,4.3-2.5c2.5-1.5,5-2.9,7.2-4.2c2.3-1.3,3.5-2,3.7-2c0.6,0,2.5,1.9,5.7,5.7c3.1,3.8,5.2,6.6,6.4,8.3c1.6-0.2,2.9-0.2,3.7-0.2c0.8,0,2,0.1,3.7,0.2c4.2-5.8,7.9-10.4,11.3-13.8l0.7-0.2c0.3,0,5.4,2.9,15.2,8.6c0.3,0.2,0.5,0.5,0.5,0.9c0,2-2.1,7.7-6.3,17c1.4,1.9,2.6,4,3.7,6.4C239.9,179.7,246,181,246,182.3L246,182.3z M246,56.4v17.2c0,1.3-6.1,2.6-18.3,3.8c-1,2.2-2.2,4.3-3.7,6.4c4.2,9.3,6.3,14.9,6.3,17c0,0.3-0.2,0.6-0.5,0.9c-10,5.8-15.1,8.7-15.2,8.7c-0.7,0-2.5-1.9-5.7-5.8c-3.1-3.9-5.3-6.6-6.4-8.4c-1.6,0.2-2.9,0.2-3.7,0.2c-0.8,0-2-0.1-3.7-0.2c-1.2,1.7-3.3,4.5-6.4,8.4c-3.1,3.9-5,5.8-5.7,5.8c-0.2,0-5.3-2.9-15.2-8.7c-0.3-0.2-0.5-0.5-0.5-0.9c0-2,2.1-7.7,6.3-17c-1.5-2-2.7-4.2-3.7-6.4c-12.2-1.2-18.3-2.5-18.3-3.8V56.4c0-1.3,6.1-2.6,18.3-3.8c1.1-2.4,2.3-4.5,3.7-6.4c-4.2-9.3-6.3-14.9-6.3-17c0-0.3,0.2-0.6,0.5-0.9c0.3-0.2,1.8-1,4.3-2.5c2.5-1.5,5-2.9,7.2-4.2c2.3-1.3,3.5-2,3.7-2c0.6,0,2.5,1.9,5.7,5.7c3.1,3.8,5.2,6.6,6.4,8.3c1.6-0.2,2.9-0.2,3.7-0.2c0.8,0,2,0.1,3.7,0.2c4.2-5.8,7.9-10.4,11.3-13.8l0.7-0.2c0.3,0,5.4,2.9,15.2,8.6c0.3,0.2,0.5,0.5,0.5,0.9c0,2-2.1,7.7-6.3,17c1.4,1.9,2.6,4,3.7,6.4C239.9,53.8,246,55.1,246,56.4L246,56.4z"/></g></g></g>
</svg>